<?xml version="1.0" encoding="UTF-8" standalone="no"?>
<!-- Created with Inkscape (http://www.inkscape.org/) -->

<svg
   width="400"
   height="400"
   viewBox="0 0 400 400"
   version="1.1"
   id="svg1"
   sodipodi:docname="logo.svg"
   inkscape:version="1.3.2 (091e20ef0f, 2023-11-25)"
   inkscape:export-filename="logo.png"
   inkscape:export-xdpi="96"
   inkscape:export-ydpi="96"
   xmlns:inkscape="http://www.inkscape.org/namespaces/inkscape"
   xmlns:sodipodi="http://sodipodi.sourceforge.net/DTD/sodipodi-0.dtd"
   xmlns:xlink="http://www.w3.org/1999/xlink"
   xmlns="http://www.w3.org/2000/svg"
   xmlns:svg="http://www.w3.org/2000/svg">
  <sodipodi:namedview
     id="namedview1"
     pagecolor="#ffffff"
     bordercolor="#000000"
     borderopacity="0.25"
     inkscape:showpageshadow="2"
     inkscape:pageopacity="0.0"
     inkscape:pagecheckerboard="0"
     inkscape:deskcolor="#d1d1d1"
     inkscape:document-units="px"
     inkscape:zoom="1"
     inkscape:cx="249"
     inkscape:cy="182"
     inkscape:window-width="1832"
     inkscape:window-height="992"
     inkscape:window-x="1952"
     inkscape:window-y="32"
     inkscape:window-maximized="1"
     inkscape:current-layer="g4" />
  <defs
     id="defs1">
    <linearGradient
       id="linearGradient1"
       inkscape:collect="always">
      <stop
         style="stop-color:#4a154b;stop-opacity:1;"
         offset="0"
         id="stop1" />
      <stop
         style="stop-color:#7b2cbf;stop-opacity:1;"
         offset="1"
         id="stop2" />
    </linearGradient>
    <linearGradient
       inkscape:collect="always"
       xlink:href="#linearGradient1"
       id="linearGradient2"
       x1="244.00349"
       y1="66.65918"
       x2="244.00349"
       y2="329.78177"
       gradientUnits="userSpaceOnUse"
       gradientTransform="matrix(1.3646104,0,0,1.5245495,-124.90756,-102.76864)" />
  </defs>
  <g
     inkscape:label="BG"
     inkscape:groupmode="layer"
     id="layer1">
    <rect
       style="fill:url(#linearGradient2);fill-opacity:1;stroke:none;stroke-width:1.5"
       id="rect1"
       width="400.00003"
       height="400.00003"
       x="-1.5283387e-08"
       y="-1.5283387e-08" />
  </g>
  <g
     inkscape:groupmode="layer"
     id="layer2"
     inkscape:label="Connection">
    <g
       id="g4"
       transform="matrix(0.87741557,-0.65112108,0.65088798,0.8777298,-119.13394,125.32256)"
       style="stroke-width:0.915184">
      <path
         id="path2"
         style="fill:none;stroke:#ffd700;stroke-width:13.72776654;stroke-dasharray:none;stroke-opacity:1"
         d="m 84.215589,168.36523 c -42.461158,7e-5 -76.8823854,27.11243 -76.881322,60.55665 3.182e-4,33.44345 34.421142,60.55461 76.881322,60.55468 20.523241,-0.0575 30.519021,-10.87849 50.944051,-10.87882 20.4243,-3.3e-4 39.51123,10.82091 58.21145,10.87882 18.96196,-0.0548 38.04493,-11.41354 58.72345,-11.41354 20.67851,0 30.68286,11.35879 51.49261,11.41354 42.46018,-7e-5 76.881,-27.11123 76.88131,-60.55468 0.001,-33.44422 -34.42016,-60.55658 -76.88131,-60.55665 -20.7487,0.0561 -30.73567,11.35635 -51.36007,11.31818 -20.71012,-0.0384 -39.87098,-11.31501 -58.85599,-11.31818 -18.64523,0.0577 -37.71031,10.81821 -58.08119,10.78117 -20.45593,-0.0372 -30.52664,-10.77517 -51.074311,-10.78117 z"
         sodipodi:nodetypes="cccscscccscsc" />
      <ellipse
         style="fill:none;stroke:#ffe452;stroke-width:13.72776654;stroke-dasharray:none;stroke-opacity:1"
         id="ellipse2"
         cx="193.3718"
         cy="228.92101"
         rx="70.054825"
         ry="60.555134" />
    </g>
  </g>
</svg>
